<svg xmlns="http://www.w3.org/2000/svg" width="140.896" height="66.82" viewBox="0 0 37.279 17.68" xmlns:v="https://vecta.io/nano"><defs><clipPath id="A"><path d="M56.691 53.148H97v49.367H56.691zm0 0"/></clipPath></defs><g clip-path="url(#A)" transform="matrix(.352778 0 0 .352778 -19.86687 -18.61744)"><path d="M58.582 83.078c0-4.004 1.387-7.156 4.363-9.93 2.703-2.52 6.379-4.348 9.621-5.961 5.145-2.559 10-4.973 10-9.738 0-.457-.129-.758-.246-.98 1.059.402 7.797 3.176 7.797 8.691 0 11.629-27.484 13.719-27.484 25.344a8.44 8.44 0 0 0 1.07 4.16c-3.398-3.039-5.121-6.926-5.121-11.586m37.48-10.492c0-14.73-15.395-18.598-19.922-19.418-.129-.023-.227-.023-.234-.004h0c-.012.02.047.055.211.105 1.699.496 4.559 1.699 4.559 4.18 0 8.668-23.984 8.355-23.984 25.629 0 14.734 15.398 18.602 19.926 19.418.246.047.375.004.023-.098-1.699-.496-4.562-1.703-4.562-4.184 0-8.668 23.984-8.355 23.984-25.629" fill="#233a6e"/></g><path d="M18.186 6.901c0-.689.593-1.027 1.363-1.027s1.311.278 1.651.464a.47.47 0 0 0 .706-.176l.145-.24c.168-.285.114-.524-.176-.706-.384-.241-1.122-.626-2.245-.626-1.587 0-2.935.802-2.935 2.341 0 2.742 4.185 2.213 4.185 3.801 0 .689-.577 1.073-1.378 1.073-.947 0-1.619-.418-1.989-.656-.278-.182-.532-.168-.737.112l-.161.225c-.179.266-.156.522.113.722a4.56 4.56 0 0 0 2.726.882c1.747 0 2.919-1.01 2.919-2.39 0-2.759-4.185-2.181-4.185-3.801m6.693.002c0-.689.593-1.027 1.363-1.027s1.311.278 1.651.464c.274.152.522.116.707-.176l.143-.24c.168-.285.114-.524-.176-.706-.384-.241-1.123-.626-2.245-.626-1.587 0-2.934.802-2.934 2.341 0 2.742 4.185 2.213 4.185 3.801 0 .689-.577 1.073-1.379 1.073-.947 0-1.619-.418-1.989-.656-.278-.182-.532-.168-.737.112l-.161.225c-.179.266-.156.522.113.722a4.56 4.56 0 0 0 2.726.882c1.747 0 2.919-1.01 2.919-2.39 0-2.759-4.185-2.181-4.185-3.801M33.7 5.81c1.45 0 2.086 1.276 2.086 2.165h-4.414c.134-1.373 1.192-2.165 2.328-2.165m3.434 2.941c.008-.033.012-.069.012-.11 0-2.202-1.147-4.049-3.416-4.049-2.209 0-3.852 1.667-3.852 4.25 0 2.405 1.672 4.25 4.111 4.25 1.243 0 2.162-.532 2.622-.867a.48.48 0 0 0 .154-.706l-.138-.241c-.157-.276-.456-.356-.69-.176-.354.273-1.013.642-1.856.642-1.342 0-2.642-.841-2.762-2.591h5.246c.27 0 .511-.142.568-.402" fill="#233a6e"/></svg>