<svg xmlns="http://www.w3.org/2000/svg" width="56.28" height="24.51" xmlns:v="https://vecta.io/nano"><path d="M10.94 16.553c-.19.2-.707.274-.852.504-.221.347-.73 1.137-1.127 1.513-1.282 1.217-4.027 1.829-5.38.667-.089.006-.038.058.069.39.098.629.606 2.107.418 2.484.122.42.249.266.479.499.157.157.221.569.402.68l.619-.044.113.347.795-.058c.149.034.599.266.731.302l.881-.061c.674.179 1.262-.102 1.83-.486.317-.212.663-.178.945-.419.408-.35.963-1.034 1.223-1.507.638-1.158.421-3.933-.157-4.619-.226-.247-.494-.252-.989-.194m5.332-.761c-.478.366-.679.275-.959.84-.029 0 .042.084.014.084.285.569.938.798 1.418 1.198.149.127.554.83.747.88.217.258.357.971.499.971.146.2-.013.673.131.857.009.846-.108.905-.255 1.068 0 .059.081.212.081.269.04.04.38.284.527.254.461.013 2.347 1.486 2.497 1.77 1.354.102 1.255-.312 2.189-.708.252-.109.454-.006.619-.178.174-.177.188-.526.354-.708.022-3.329-4.507-6.483-7.862-6.598m3.676-7.035c-1.677.252-2.702.788-3.336 1.226-.443.309-.572.515-.666.646s-.162.417-.115.721.173.62.434.799c2.059-.152 5.636-.282 6.332 1.448.036.241.092.387.096.444.682-.169.183-.109 1.188.048.23.036.797-.092 1.173-.184.171-.04.268-.195.268-.195s-.033-.165-.023-.255c0 0 .353.027.497-.084.953-.154.452-.601.901-1.106-.269-3.234-3.588-3.986-6.749-3.506m-12.77 5.897c.369-.095.997-.144 1.326-.308.525-.263 2.327-1.523 1.753-2.549-.176-2.162-2.786-.335-3.898-1.093-1.124-.145-2.387-2.271-2.726-3.183-.131-.36-.077-.237-.258-.522.001-.029-.115.098-.114.069-.328.382-.272.717-.323 1.65l-.442-.028c-.028.339-.062.523-.22.697-.032.058-.066.113-.098.171-.28-.094-.139.039-.253-.196-1.035.053-.959 1.094-1.434 1.684.021 1.943 3.865 4.338 6.687 3.607m7.488-10.561c.089-.734-.02-1.806.559-2.311.17-.783 1.403-.6 1.211-1.099-.119-.312-.698-.163-.933-.106-.178.042-1.868.577-2.517.649l-.825-.23c-1.062.143-1.673.987-2.263 1.657-.494.561-1.165 1.938-.632 2.762l-.089.54 1.205 1.76c.416.299.471.52.919.815l.277.416c.365.24 1.446.244 1.627.087 1.738.162 1.549-3.355 2.1-4.094-.069-.332-.361-.676-.638-.846" fill="#f1471c" fill-rule="evenodd"/><path d="M42.62 17.126c1.539 0 2.79-.509 2.79-3.226 0-2.312-1.252-3.081-2.79-3.081h-.807v6.307h.807zm.816-8.14c2.786 0 4.671 1.761 4.671 4.914 0 3.961-2.589 5.134-5.303 5.134h-3.632c.013-.22 0-.806 0-1.541V8.986m12.884 8.507l.037 1.541h-2.694l.018-1.541v-6.968l-.018-1.538h6.369v1.944l-1.907-.036h-1.805v2.024l1.805.019 1.5-.019v1.852l-1.5-.028-1.805.01m-20.503-1.97c.04-.581.247-1.931 1.715-1.931 1.505 0 1.587 1.268 1.587 1.94v.135l-1.606.028c-.6 0-1.706-.028-1.706-.028l.01-.143zm2.242 4.22c-1.267 0-2.242-.853-2.242-2.186v-.114l3.152-.057 2.987-.027v-.758c0-3.423-1.452-5.09-4.443-5.09-1.378 0-4.583.518-4.583 5.312 0 3.199 1.615 5.111 4.438 5.111 2.216 0 3.576-.566 4.562-1.286-.111-.167-.936-1.65-1.044-1.812-.592.451-1.568.906-2.828.906" fill="#13356d"/></svg>