<svg xmlns="http://www.w3.org/2000/svg" width="197.612" height="69.805" xmlns:v="https://vecta.io/nano"><defs><clipPath id="A"><path d="M98.539 35.918c-15.301.137-27.676 12.582-27.676 27.926h0c0 15.418 12.504 27.918 27.926 27.918h0 102.242c15.34 0 27.789-12.363 27.922-27.668h0v-.5c-.133-15.227-12.449-27.543-27.672-27.676h0H98.539zM73.602 63.844a25.19 25.19 0 0 1 25.188-25.188h0 102.242c13.91 0 25.184 11.273 25.184 25.188h0c0 13.906-11.274 25.183-25.184 25.183h0H98.789c-13.91 0-25.187-11.277-25.187-25.183m96.312-6.809l.004 7.793c0 1.633-1.043 2.883-2.949 2.883h0c-1.91 0-2.949-1.383-2.949-2.914h0v-9.285c0-.277-.227-.504-.504-.504h0-1.649c-1.121 0-2.023.906-2.023 2.027h0l.004 7.777c0 1.629-1.043 2.898-2.95 2.898h0c-1.816 0-2.949-1.269-2.949-2.898h0l-.004-9.301c0-.277-.226-.504-.5-.504h0-1.648c-1.117 0-2.024.906-2.024 2.027h0v7.73c0 3.965 2.555 7.016 6.989 7.016h0c1.972 0 3.886-.789 5.176-2.074h0c1.296 1.285 3.273 2.074 5.242 2.074h0c4.617 0 6.914-3.324 6.914-7.012h0l-.008-9.258c0-.277-.223-.504-.5-.504h0-1.648c-1.118 0-2.024.906-2.024 2.027m31.398-2.016c-3.777 0-6.683 2.754-6.683 7.004h0v7.723c0 1.117.902 2.02 2.019 2.02h0 1.653c.277 0 .504-.223.504-.5h0v-9.359c0-1.664 1.293-2.844 2.761-2.82h0 5.418a2.02 2.02 0 0 0 2.024-2.02h0v-1.551c0-.273-.227-.496-.508-.496h0-7.188zm-64.148 0c-4.062 0-6.687 3.09-6.687 6.871h0v2.879c0 4.156 2.812 6.992 6.687 6.992h0 4.484c3.778 0 6.688-2.742 6.688-6.992h0v-2.879c0-3.781-2.629-6.871-6.688-6.871h0-4.484zm-2.512 9.75v-2.758c0-1.668 1.106-2.926 2.766-2.926h0 3.98c1.563 0 2.762 1.164 2.762 2.926h0v2.758c0 1.754-1.199 2.922-2.762 2.922h0-3.98c-1.66 0-2.766-1.262-2.766-2.922m-22.226-9.75v14.738c0 1.117.902 2.008 2.023 2.008h0 1.649c.277 0 .504-.219.504-.492h0v-3.867h6.703c3.445 0 5.922-2.359 5.922-6.148h0c0-3.754-2.477-6.238-5.922-6.238h0-10.879zm4.176 4.074h6.554c1.145 0 1.899.941 1.899 2.082h0c0 1.148-.754 2.152-1.899 2.152h0-6.554v-4.234zm-4.176-4.074h0 0zm-12.864 0c-3.875 0-6.687 2.852-6.687 7.004h0v7.723a2.02 2.02 0 0 0 2.023 2.02h0 1.648a.5.5 0 0 0 .504-.5h0v-9.254c0-1.754 1.195-2.914 2.762-2.914h0 6.352v10.648c0 1.117.902 2.02 2.02 2.02h0 1.652a.5.5 0 0 0 .5-.5h0V55.02H99.563zm82.735 0c-3.781 0-6.688 2.762-6.688 7.012h0v2.766c0 4.152 2.868 6.965 6.649 6.965h0 8.351c1.118 0 2.024-.859 2.024-1.977h0l-.008-1.59a.5.5 0 0 0-.5-.504h0-9.82c-1.383 0-2.516-.914-2.516-2.004h0 7.992c3.004 0 5.328-2.422 5.328-5.473h0c0-2.812-2.461-5.195-5.328-5.195h0-5.484zm.008 4.066h5.351c.696 0 1.27.57 1.27 1.285h0c0 .664-.543 1.273-1.27 1.273h0l-7.859.004c0-1.539.863-2.562 2.508-2.562"/></clipPath><linearGradient id="B" x1="228.781" y1="63.841" x2="70.808" y2="63.841" gradientUnits="userSpaceOnUse"><stop offset=".173" stop-color="#0066b3"/><stop offset=".281" stop-color="#0066b3"/><stop offset=".285" stop-color="#0066b2"/><stop offset=".289" stop-color="#0066b2"/><stop offset=".297" stop-color="#0065b2"/><stop offset=".301" stop-color="#0064b1"/><stop offset=".305" stop-color="#0064b1"/><stop offset=".309" stop-color="#0064b0"/><stop offset=".313" stop-color="#0063b0"/><stop offset=".32" stop-color="#0063b0"/><stop offset=".324" stop-color="#0262af"/><stop offset=".328" stop-color="#0562af"/><stop offset=".332" stop-color="#0d62ae"/><stop offset=".336" stop-color="#1561ae"/><stop offset=".34" stop-color="#1a61ae"/><stop offset=".344" stop-color="#1f61ae"/><stop offset=".348" stop-color="#2360ad"/><stop offset=".352" stop-color="#2760ad"/><stop offset=".355" stop-color="#2a5fac"/><stop offset=".359" stop-color="#2d5fac"/><stop offset=".363" stop-color="#305eac"/><stop offset=".367" stop-color="#335eac"/><stop offset=".371" stop-color="#355eab"/><stop offset=".375" stop-color="#375dab"/><stop offset=".379" stop-color="#3a5daa"/><stop offset=".383" stop-color="#3c5daa"/><stop offset=".387" stop-color="#3f5caa"/><stop offset=".391" stop-color="#415caa"/><stop offset=".395" stop-color="#435ba9"/><stop offset=".398" stop-color="#455ba9"/><stop offset=".402" stop-color="#475aa8"/><stop offset=".406" stop-color="#485aa8"/><stop offset=".41" stop-color="#4b59a8"/><stop offset=".414" stop-color="#4d59a7"/><stop offset=".418" stop-color="#4e58a7"/><stop offset=".422" stop-color="#5058a7"/><stop offset=".426" stop-color="#5258a6"/><stop offset=".43" stop-color="#5358a6"/><stop offset=".434" stop-color="#5557a6"/><stop offset=".438" stop-color="#5756a5"/><stop offset=".441" stop-color="#5856a5"/><stop offset=".445" stop-color="#5a56a5"/><stop offset=".449" stop-color="#5c55a4"/><stop offset=".453" stop-color="#5d54a4"/><stop offset=".457" stop-color="#5f54a4"/><stop offset=".461" stop-color="#6053a3"/><stop offset=".465" stop-color="#6253a3"/><stop offset=".469" stop-color="#6353a3"/><stop offset=".473" stop-color="#6552a2"/><stop offset=".477" stop-color="#6651a2"/><stop offset=".48" stop-color="#6851a1"/><stop offset=".484" stop-color="#6950a1"/><stop offset=".488" stop-color="#6d509e"/><stop offset=".492" stop-color="#714f9b"/><stop offset=".496" stop-color="#744f99"/><stop offset=".5" stop-color="#774e97"/><stop offset=".504" stop-color="#7a4d95"/><stop offset=".508" stop-color="#7e4d93"/><stop offset=".512" stop-color="#804c92"/><stop offset=".516" stop-color="#834c90"/><stop offset=".52" stop-color="#864b8e"/><stop offset=".523" stop-color="#8a4a8b"/><stop offset=".527" stop-color="#8c4a8a"/><stop offset=".531" stop-color="#8f4988"/><stop offset=".535" stop-color="#924886"/><stop offset=".539" stop-color="#944884"/><stop offset=".543" stop-color="#984782"/><stop offset=".547" stop-color="#9b4680"/><stop offset=".551" stop-color="#9e467e"/><stop offset=".555" stop-color="#a0457c"/><stop offset=".559" stop-color="#a3447a"/><stop offset=".563" stop-color="#a64379"/><stop offset=".566" stop-color="#a84277"/><stop offset=".57" stop-color="#ab4175"/><stop offset=".574" stop-color="#ae4073"/><stop offset=".578" stop-color="#b13f71"/><stop offset=".582" stop-color="#b33e6f"/><stop offset=".586" stop-color="#b63d6d"/><stop offset=".59" stop-color="#b93d6b"/><stop offset=".594" stop-color="#bc3c69"/><stop offset=".598" stop-color="#be3a68"/><stop offset=".602" stop-color="#c13966"/><stop offset=".605" stop-color="#c43864"/><stop offset=".609" stop-color="#c63662"/><stop offset=".613" stop-color="#c93560"/><stop offset=".617" stop-color="#cc345e"/><stop offset=".621" stop-color="#ce325c"/><stop offset=".625" stop-color="#d0305b"/><stop offset=".629" stop-color="#d32e58"/><stop offset=".633" stop-color="#d62c56"/><stop offset=".637" stop-color="#d92a54"/><stop offset=".641" stop-color="#db2853"/><stop offset=".645" stop-color="#de2651"/><stop offset=".648" stop-color="#e1244f"/><stop offset=".652" stop-color="#e3224d"/><stop offset=".656" stop-color="#e61f4b"/><stop offset=".66" stop-color="#e91c49"/><stop offset=".664" stop-color="#ec1947"/><stop offset=".672" stop-color="#ed1847"/></linearGradient></defs><g fill="#fff"><path d="M.005 34.907C.005 15.625 15.63 0 34.907 0h127.808c19.272 0 34.897 15.625 34.897 34.907 0 19.273-15.625 34.898-34.897 34.898H34.907C15.63 69.805.005 54.18.005 34.907"/><path d="M162.71 69.414H34.907C15.874 69.414.391 53.935.391 34.907.391 15.869 15.874.391 34.907.391H162.71c19.034 0 34.512 15.479 34.512 34.517 0 19.028-15.478 34.507-34.512 34.507"/></g><g transform="matrix(1.25 0 0 1.25 -88.5791 -44.8975)" clip-path="url(#A)"><path d="M228.953 91.762V35.918H70.863v55.844h158.09z" fill="url(#B)"/></g></svg>